<svg width="55" height="52" viewBox="0 0 55 52" fill="none" xmlns="http://www.w3.org/2000/svg">
<g clip-path="url(#clip0_957_766)">
<path d="M26.5568 40.8597C27.5624 34.6485 26.2904 30.8524 18.6369 28.9193C7.80692 26.1898 0.567401 15.3057 0.0219937 4.93959C-0.200078 0.717923 1.38107 -0.319548 5.4885 0.0786906C16.9083 1.20162 24.5475 7.1017 31.565 21.0024C36.4701 16.7295 41.7589 13.3983 48.5259 12.6736C54.8203 12.0053 55.84 14.7776 54.1843 19.5821C51.3329 27.7981 45.4791 33.341 36.662 35.0331C32.5101 35.8295 32.1992 37.8054 32.5243 40.8443L32.3467 41.2699H26.7203L26.5426 40.8443L26.5568 40.8597Z" fill="#6BBAC9"/>
<path d="M16.5825 41.335H42.6341C42.6341 46.2625 36.7714 50.2893 29.6065 50.2893C22.4416 50.2893 16.5825 46.2625 16.5825 41.335Z" fill="#4E909B" stroke="#4E909B" stroke-width="2" stroke-miterlimit="10" stroke-linecap="round" stroke-linejoin="round"/>
</g>
<defs>
<clipPath id="clip0_957_766">
<rect width="54.8889" height="52" fill="white"/>
</clipPath>
</defs>
</svg>
