<svg width="24" height="25" viewBox="0 0 24 25" fill="none" xmlns="http://www.w3.org/2000/svg">
<path fill-rule="evenodd" clip-rule="evenodd" d="M3.18853 13.3651C3.96153 13.6001 4.56353 14.2021 4.79753 14.9741C4.86253 15.1851 5.05653 15.3291 5.27653 15.3291C5.49753 15.3291 5.69153 15.1841 5.75453 14.9731C5.98853 14.2021 6.58953 13.6001 7.36353 13.3651C7.57453 13.3011 7.71753 13.1061 7.71753 12.8861C7.71753 12.6671 7.57453 12.4721 7.36453 12.4081C6.58953 12.1721 5.98853 11.5701 5.75453 10.7991C5.69153 10.5881 5.49753 10.4431 5.27653 10.4431C5.05653 10.4431 4.86253 10.5871 4.79753 10.7981C4.56353 11.5701 3.96053 12.1731 3.18753 12.4081C2.97753 12.4721 2.83453 12.6671 2.83453 12.8861C2.83453 13.1071 2.97753 13.3011 3.18853 13.3651Z" fill="black"/>
<path fill-rule="evenodd" clip-rule="evenodd" d="M5.49609 4.69323C5.91009 4.69323 6.24609 4.35723 6.24609 3.94323V3.93323C6.24609 3.51923 5.91009 3.18823 5.49609 3.18823C5.08209 3.18823 4.74609 3.52923 4.74609 3.94323C4.74609 4.35723 5.08209 4.69323 5.49609 4.69323Z" fill="black"/>
<path fill-rule="evenodd" clip-rule="evenodd" d="M3.5 7.36212V7.35212C3.5 6.93812 3.164 6.60712 2.75 6.60712C2.336 6.60712 2 6.94812 2 7.36212C2 7.77612 2.336 8.11212 2.75 8.11212C3.164 8.11212 3.5 7.77612 3.5 7.36212Z" fill="black"/>
<path fill-rule="evenodd" clip-rule="evenodd" d="M8.27342 17.4412C8.10942 17.0592 7.66342 16.8872 7.28742 17.0522C6.90742 17.2172 6.73342 17.6592 6.89842 18.0392L8.27942 21.2142C8.40142 21.4982 8.67742 21.6662 8.96642 21.6662C9.06742 21.6662 9.16942 21.6462 9.26542 21.6032C9.64542 21.4382 9.81942 20.9972 9.65442 20.6172L8.27342 17.4412Z" fill="black"/>
<path fill-rule="evenodd" clip-rule="evenodd" d="M4.1445 18.4246C3.8395 18.1446 3.3655 18.1626 3.0845 18.4686C2.8045 18.7736 2.8245 19.2476 3.1285 19.5286L5.2365 21.4676C5.3805 21.6006 5.5625 21.6656 5.7445 21.6656C5.9465 21.6656 6.1485 21.5846 6.2955 21.4236C6.5765 21.1186 6.5565 20.6446 6.2515 20.3636L4.1445 18.4246Z" fill="black"/>
<path fill-rule="evenodd" clip-rule="evenodd" d="M20.8115 12.408C20.0395 12.173 19.4365 11.571 19.2015 10.798C19.1365 10.588 18.9425 10.444 18.7225 10.444C18.5015 10.444 18.3075 10.589 18.2445 10.799C18.0095 11.571 17.4085 12.173 16.6355 12.408C16.4245 12.472 16.2815 12.667 16.2815 12.887C16.2815 13.106 16.4245 13.301 16.6355 13.365C17.4095 13.6 18.0095 14.202 18.2445 14.973C18.3075 15.184 18.5015 15.329 18.7225 15.329C18.9425 15.329 19.1365 15.185 19.2015 14.974C19.4365 14.202 20.0395 13.6 20.8115 13.365C21.0225 13.301 21.1655 13.106 21.1655 12.887C21.1655 12.667 21.0225 12.472 20.8115 12.408Z" fill="black"/>
<path fill-rule="evenodd" clip-rule="evenodd" d="M14.7256 10.9511C14.8246 10.7641 14.8596 10.5471 14.8246 10.3331L14.5446 8.80505L15.6916 7.70505C15.8786 7.52505 15.9856 7.28305 15.9906 7.02305C15.9956 6.76405 15.8996 6.51805 15.7176 6.33005C15.5656 6.17405 15.3626 6.07205 15.1536 6.04505L13.5826 5.82905L12.8696 4.40705C12.7486 4.17405 12.5446 4.00205 12.2946 3.92305C12.0466 3.84405 11.7806 3.86605 11.5496 3.98505C11.3686 4.07805 11.2176 4.22905 11.1256 4.41105C11.1256 4.41205 11.1246 4.41205 11.1246 4.41305L10.4316 5.81505L8.85261 6.04305C8.59561 6.07605 8.36761 6.20805 8.20861 6.41305C8.05061 6.61905 7.98261 6.87505 8.01661 7.13105C8.04461 7.34605 8.14661 7.54805 8.30561 7.70305L9.44561 8.77605L9.17161 10.3391C9.12961 10.5971 9.19161 10.8551 9.34361 11.0661C9.49661 11.2771 9.72261 11.4171 9.98561 11.4591C10.1946 11.4911 10.4056 11.4561 10.5896 11.3591L11.9906 10.6251L13.4046 11.3571C13.5476 11.4331 13.7036 11.4721 13.8606 11.4721C13.9566 11.4721 14.0536 11.4571 14.1496 11.4281C14.3986 11.3511 14.6036 11.1821 14.7256 10.9511Z" fill="black"/>
<path fill-rule="evenodd" clip-rule="evenodd" d="M18.5039 4.69323C18.9179 4.69323 19.2539 4.35723 19.2539 3.94323V3.93323C19.2539 3.51923 18.9179 3.18823 18.5039 3.18823C18.0899 3.18823 17.7539 3.52923 17.7539 3.94323C17.7539 4.35723 18.0899 4.69323 18.5039 4.69323Z" fill="black"/>
<path fill-rule="evenodd" clip-rule="evenodd" d="M20.5 6.60724H21.9998V8.11224H20.5V6.60724Z" fill="black"/>
<path fill-rule="evenodd" clip-rule="evenodd" d="M21.25 6.60724C20.836 6.60724 20.5 6.94824 20.5 7.36224C20.5 7.77624 20.836 8.11224 21.25 8.11224C21.664 8.11224 22 7.77624 22 7.36224V7.35224C22 6.93824 21.664 6.60724 21.25 6.60724Z" fill="black"/>
<path fill-rule="evenodd" clip-rule="evenodd" d="M12 13.7527C11.586 13.7527 11.25 14.0887 11.25 14.5027V20.9157C11.25 21.3297 11.586 21.6657 12 21.6657C12.414 21.6657 12.75 21.3297 12.75 20.9157V14.5027C12.75 14.0887 12.414 13.7527 12 13.7527Z" fill="black"/>
<path fill-rule="evenodd" clip-rule="evenodd" d="M16.7129 17.0525C16.3389 16.8875 15.8919 17.0615 15.7269 17.4415L14.3459 20.6165C14.1809 20.9965 14.3549 21.4385 14.7339 21.6035C14.8309 21.6465 14.9329 21.6655 15.0329 21.6655C15.3219 21.6655 15.5989 21.4965 15.7209 21.2145L17.1019 18.0385C17.2669 17.6585 17.0929 17.2175 16.7129 17.0525Z" fill="black"/>
<path fill-rule="evenodd" clip-rule="evenodd" d="M19.8555 18.4246L17.7485 20.3636C17.4435 20.6446 17.4235 21.1186 17.7045 21.4236C17.8515 21.5846 18.0535 21.6656 18.2555 21.6656C18.4375 21.6656 18.6205 21.6006 18.7635 21.4676L20.8715 19.5286C21.1755 19.2476 21.1955 18.7736 20.9155 18.4686C20.6355 18.1626 20.1595 18.1446 19.8555 18.4246Z" fill="black"/>
</svg>