<svg width="24" height="19" viewBox="0 0 24 19" fill="none" xmlns="http://www.w3.org/2000/svg">
<path d="M1.67273 11.5987L1.67273 11.5987C0.775841 10.7346 0.775675 9.31969 1.67273 8.45554L1.67273 11.5987ZM1.67273 11.5987L7.14131 16.8673C7.14131 16.8673 7.14131 16.8673 7.14132 16.8673M1.67273 11.5987L7.14132 16.8673M7.14132 16.8673C7.58215 17.292 8.1554 17.5 8.71886 17.5M7.14132 16.8673L8.71886 17.5M8.71886 17.5C9.2823 17.5 9.85556 17.292 10.2964 16.8673C10.2964 16.8673 10.2964 16.8673 10.2964 16.8673L22.3273 5.27615C23.2242 4.41196 23.2242 2.9972 22.3273 2.13301C21.4512 1.289 20.0482 1.289 19.1722 2.13301L8.71885 12.2044L4.82782 8.45554C3.95182 7.61156 2.54886 7.61153 1.67282 8.45545L8.71886 17.5Z" fill="#0E1D2C" stroke="#0E1D2C" stroke-width="2"/>
</svg>
