<svg width="32" height="33" viewBox="0 0 32 33" fill="none" xmlns="http://www.w3.org/2000/svg">
<path d="M1 16C1 7.71573 7.71573 1 16 1V1C24.2843 1 31 7.71573 31 16V16C31 24.2843 24.2843 31 16 31V31C7.71573 31 1 24.2843 1 16V16Z" fill="#FFBE2F"/>
<path d="M0.5 16C0.5 7.43959 7.43959 0.5 16 0.5C24.5604 0.5 31.5 7.43959 31.5 16H30.5C30.5 7.99187 24.0081 1.5 16 1.5C7.99187 1.5 1.5 7.99187 1.5 16H0.5ZM31.5 17.5C31.5 26.0604 24.5604 33 16 33C7.43959 33 0.5 26.0604 0.5 17.5L1.5 16C1.5 23.1797 7.99187 29 16 29C24.0081 29 30.5 23.1797 30.5 16L31.5 17.5ZM16 33C7.43959 33 0.5 26.0604 0.5 17.5V16C0.5 7.43959 7.43959 0.5 16 0.5V1.5C7.99187 1.5 1.5 7.99187 1.5 16C1.5 23.1797 7.99187 29 16 29V33ZM16 0.5C24.5604 0.5 31.5 7.43959 31.5 16V17.5C31.5 26.0604 24.5604 33 16 33V29C24.0081 29 30.5 23.1797 30.5 16C30.5 7.99187 24.0081 1.5 16 1.5V0.5Z" fill="#E8B033"/>
<path d="M15.0674 11.6733C14.1598 12.0164 13.7061 12.4425 13.7061 12.9517C13.7061 13.3888 14.1598 13.6655 15.0674 13.7817V11.6733ZM16.8521 19.1274C18.064 18.7069 18.6699 18.1839 18.6699 17.5586C18.6699 16.6178 18.064 16.0838 16.8521 15.9565V19.1274ZM21.127 17.6665C21.127 18.7124 20.6815 19.5785 19.7905 20.2646C19.0601 20.8291 18.0806 21.2386 16.8521 21.4932V23.5684C16.8521 24.1605 16.5339 24.4565 15.8975 24.4565C15.6208 24.4565 15.4049 24.3514 15.25 24.1411C15.1283 23.9696 15.0674 23.7786 15.0674 23.5684V21.7339C14.8516 21.745 14.6413 21.7505 14.4365 21.7505C13.3242 21.7505 12.4582 21.6011 11.8384 21.3022C11.2795 21.0366 11 20.6963 11 20.2812C11 19.4899 11.4372 19.0942 12.3115 19.0942C12.5384 19.0942 12.923 19.1772 13.4653 19.3433C14.0076 19.5037 14.359 19.584 14.5195 19.584C14.6689 19.584 14.8516 19.5701 15.0674 19.5425V15.8818C14.099 15.821 13.2744 15.6162 12.5938 15.2676C11.7028 14.8138 11.2573 14.1857 11.2573 13.3833C11.2573 12.4702 11.6558 11.6291 12.4526 10.8599C13.161 10.1737 14.0326 9.66732 15.0674 9.34082V7.97119C15.0674 7.32373 15.3717 7 15.9805 7C16.5615 7 16.8521 7.32373 16.8521 7.97119V9.06689C17.4774 9.10563 18.147 9.24398 18.8608 9.48193C19.7739 9.78076 20.2305 10.1239 20.2305 10.5112C20.2305 10.8267 20.117 11.0951 19.8901 11.3164C19.6632 11.5378 19.3921 11.6484 19.0767 11.6484C18.811 11.6484 18.4403 11.5959 17.9644 11.4907C17.4608 11.3856 17.09 11.3275 16.8521 11.3164V13.8647C16.9295 13.8647 16.9904 13.8675 17.0347 13.873C18.2576 13.9671 19.2233 14.3102 19.9316 14.9023C20.7285 15.5664 21.127 16.4878 21.127 17.6665Z" fill="#FFF4DB"/>
</svg>
